<svg xmlns="http://www.w3.org/2000/svg" version="1.1" xmlns:xlink="http://www.w3.org/1999/xlink" xmlns:svgjs="http://svgjs.dev/svgjs" width="2000" height="1500" viewBox="0 0 2000 1500"><rect width="2000" height="1500" fill="#000000"></rect><g transform="matrix(0.75,0,0,0.75,249.090909090909,278.98548387096776)"><svg viewBox="0 0 396 248" data-background-color="#ffffff" preserveAspectRatio="xMidYMid meet" height="1252" width="2000" xmlns="http://www.w3.org/2000/svg" xmlns:xlink="http://www.w3.org/1999/xlink"><g id="tight-bounds" transform="matrix(1,0,0,1,0.2400000000000091,0.4000000000000057)"><svg viewBox="0 0 395.52 247.2" height="247.2" width="395.52"><g><svg></svg></g><g><svg viewBox="0 0 395.52 247.2" height="247.2" width="395.52"><g transform="matrix(1,0,0,1,75.54432,60.08933272075274)"><svg viewBox="0 0 244.43135999999998 127.0213345584945" height="127.0213345584945" width="244.43135999999998"><g><svg viewBox="0 0 244.43136 127.02133455849452" height="127.0213345584945" width="244.43135999999998"><g><svg viewBox="0 0 244.43136 127.02133455849452" height="127.02133455849452" width="244.43136"><g id="textblocktransform"><svg viewBox="0 0 244.43136 127.02133455849452" height="127.02133455849452" width="244.43136" id="textblock"><g><svg viewBox="0 0 244.43136 76.91895944055943" height="76.91895944055943" width="244.43136"><g transform="matrix(1,0,0,1,0,0)"><svg width="244.43136" viewBox="1.7999999999999998 -36 114.39 36" height="76.91895944055943" data-palette-color="#000000"><path d="M18-16Q18.2-15.2 18.2-14L18.2-14Q18.2-12.85 18-12L18-12Q18.2-11.2 18.2-10L18.2-10Q18.2-8.85 18-8L18-8 16-8Q16.2-7.2 16.2-6L16.2-6Q16.2-4.85 16-4L16-4 14-4Q14.2-3.2 14.2-2L14.2-2Q14.2-0.85 14 0L14 0 2 0Q1.8-0.85 1.8-2L1.8-2Q1.8-3.2 2-4L2-4Q1.8-4.85 1.8-6L1.8-6Q1.8-7.2 2-8L2-8Q1.8-8.85 1.8-10L1.8-10Q1.8-11.2 2-12L2-12Q1.8-12.85 1.8-14L1.8-14Q1.8-15.2 2-16L2-16Q1.8-16.85 1.8-18L1.8-18Q1.8-19.2 2-20L2-20Q1.8-20.85 1.8-22L1.8-22Q1.8-23.2 2-24L2-24Q1.8-24.85 1.8-26L1.8-26Q1.8-27.2 2-28L2-28 14-28Q14.2-27.2 14.2-26L14.2-26Q14.2-24.85 14-24L14-24 16-24Q16.2-23.2 16.2-22L16.2-22Q16.2-20.85 16-20L16-20 18-20Q18.2-19.2 18.2-18L18.2-18Q18.2-16.85 18-16L18-16ZM14-8Q13.8-8.85 13.8-10L13.8-10Q13.8-11.2 14-12L14-12Q13.8-12.85 13.8-14L13.8-14Q13.8-15.2 14-16L14-16Q13.8-16.85 13.8-18L13.8-18Q13.8-19.2 14-20L14-20 12-20Q11.8-20.85 11.8-22L11.8-22Q11.8-23.2 12-24L12-24 6-24Q6.2-23.2 6.2-22L6.2-22Q6.2-20.85 6-20L6-20Q6.2-19.2 6.2-18L6.2-18Q6.2-16.85 6-16L6-16Q6.2-15.2 6.2-14L6.2-14Q6.2-12.85 6-12L6-12Q6.2-11.2 6.2-10L6.2-10Q6.2-8.85 6-8L6-8Q6.2-7.2 6.2-6L6.2-6Q6.2-4.85 6-4L6-4 12-4Q11.8-4.85 11.8-6L11.8-6Q11.8-7.2 12-8L12-8 14-8ZM36-12L28-12Q28.2-11.2 28.2-10L28.2-10Q28.2-8.85 28-8L28-8Q28.2-7.2 28.2-6L28.2-6Q28.2-4.85 28-4L28-4 36-4Q36.2-3.2 36.2-2L36.2-2Q36.2-0.85 36 0L36 0 24 0Q23.8-0.85 23.8-2L23.8-2Q23.8-3.2 24-4L24-4Q23.8-4.85 23.8-6L23.8-6Q23.8-7.2 24-8L24-8Q23.8-8.85 23.8-10L23.8-10Q23.8-11.2 24-12L24-12Q23.8-12.85 23.8-14L23.8-14Q23.8-15.2 24-16L24-16Q23.8-16.85 23.8-18L23.8-18Q23.8-19.2 24-20L24-20Q23.8-20.85 23.8-22L23.8-22Q23.8-23.2 24-24L24-24Q23.8-24.85 23.8-26L23.8-26Q23.8-27.2 24-28L24-28 36-28Q36.2-27.2 36.2-26L36.2-26Q36.2-24.85 36-24L36-24 28-24Q28.2-23.2 28.2-22L28.2-22Q28.2-20.85 28-20L28-20Q28.2-19.2 28.2-18L28.2-18Q28.2-16.85 28-16L28-16 36-16Q36.2-15.2 36.2-14L36.2-14Q36.2-12.85 36-12L36-12ZM58-4Q58.2-3.2 58.2-2L58.2-2Q58.2-0.85 58 0L58 0 44 0Q43.8-0.85 43.8-2L43.8-2Q43.8-3.2 44-4L44-4Q43.8-4.85 43.8-6L43.8-6Q43.8-7.2 44-8L44-8Q43.8-8.85 43.8-10L43.8-10Q43.8-11.2 44-12L44-12Q43.8-12.85 43.8-14L43.8-14Q43.8-15.2 44-16L44-16Q43.8-16.85 43.8-18L43.8-18Q43.8-19.2 44-20L44-20Q43.8-20.85 43.8-22L43.8-22Q43.8-23.2 44-24L44-24Q43.8-24.85 43.8-26L43.8-26Q43.8-27.2 44-28L44-28 48-28Q48.2-27.2 48.2-26L48.2-26Q48.2-24.85 48-24L48-24Q48.2-23.2 48.2-22L48.2-22Q48.2-20.85 48-20L48-20Q48.2-19.2 48.2-18L48.2-18Q48.2-16.85 48-16L48-16Q48.2-15.2 48.2-14L48.2-14Q48.2-12.85 48-12L48-12Q48.2-11.2 48.2-10L48.2-10Q48.2-8.85 48-8L48-8Q48.2-7.2 48.2-6L48.2-6Q48.2-4.85 48-4L48-4 58-4ZM78.19-22Q78.19-20.85 77.99-20L77.99-20Q78.19-19.2 78.19-18L78.19-18Q78.19-16.85 77.99-16L77.99-16 75.99-16Q76.19-15.2 76.19-14L76.19-14Q76.19-12.85 75.99-12L75.99-12 65.99-12Q66.19-11.2 66.19-10L66.19-10Q66.19-8.85 65.99-8L65.99-8Q66.19-7.2 66.19-6L66.19-6Q66.19-4.85 65.99-4L65.99-4Q66.19-3.2 66.19-2L66.19-2Q66.19-0.85 65.99 0L65.99 0 61.99 0Q61.79-0.85 61.79-2L61.79-2Q61.79-3.2 61.99-4L61.99-4Q61.79-4.85 61.79-6L61.79-6Q61.79-7.2 61.99-8L61.99-8Q61.79-8.85 61.79-10L61.79-10Q61.79-11.2 61.99-12L61.99-12Q61.79-12.85 61.79-14L61.79-14Q61.79-15.2 61.99-16L61.99-16Q61.79-16.85 61.79-18L61.79-18Q61.79-19.2 61.99-20L61.99-20Q61.79-20.85 61.79-22L61.79-22Q61.79-23.2 61.99-24L61.99-24Q61.79-24.85 61.79-26L61.79-26Q61.79-27.2 61.99-28L61.99-28 75.99-28Q76.19-27.2 76.19-26L76.19-26Q76.19-24.85 75.99-24L75.99-24 77.99-24Q78.19-23.2 78.19-22L78.19-22ZM73.99-16Q73.79-16.85 73.79-18L73.79-18Q73.79-19.2 73.99-20L73.99-20Q73.79-20.85 73.79-22L73.79-22Q73.79-23.2 73.99-24L73.99-24 65.99-24Q66.19-23.2 66.19-22L66.19-22Q66.19-20.85 65.99-20L65.99-20Q66.19-19.2 66.19-18L66.19-18Q66.19-16.85 65.99-16L65.99-16 73.99-16ZM97.99-24Q98.19-23.2 98.19-22L98.19-22Q98.19-20.85 97.99-20L97.99-20Q98.19-19.2 98.19-18L98.19-18Q98.19-16.85 97.99-16L97.99-16Q98.19-15.2 98.19-14L98.19-14Q98.19-12.85 97.99-12L97.99-12Q98.19-11.2 98.19-10L98.19-10Q98.19-8.85 97.99-8L97.99-8Q98.19-7.2 98.19-6L98.19-6Q98.19-4.85 97.99-4L97.99-4Q98.19-3.2 98.19-2L98.19-2Q98.19-0.85 97.99 0L97.99 0 93.99 0Q93.79-0.85 93.79-2L93.79-2Q93.79-3.2 93.99-4L93.99-4Q93.79-4.85 93.79-6L93.79-6Q93.79-7.2 93.99-8L93.99-8Q93.79-8.85 93.79-10L93.79-10Q93.79-11.2 93.99-12L93.99-12 85.99-12Q86.19-11.2 86.19-10L86.19-10Q86.19-8.85 85.99-8L85.99-8Q86.19-7.2 86.19-6L86.19-6Q86.19-4.85 85.99-4L85.99-4Q86.19-3.2 86.19-2L86.19-2Q86.19-0.85 85.99 0L85.99 0 81.99 0Q81.79-0.85 81.79-2L81.79-2Q81.79-3.2 81.99-4L81.99-4Q81.79-4.85 81.79-6L81.79-6Q81.79-7.2 81.99-8L81.99-8Q81.79-8.85 81.79-10L81.79-10Q81.79-11.2 81.99-12L81.99-12Q81.79-12.85 81.79-14L81.79-14Q81.79-15.2 81.99-16L81.99-16Q81.79-16.85 81.79-18L81.79-18Q81.79-19.2 81.99-20L81.99-20Q81.79-20.85 81.79-22L81.79-22Q81.79-23.2 81.99-24L81.99-24Q81.79-24.85 81.79-26L81.79-26Q81.79-27.2 81.99-28L81.99-28 85.99-28Q86.19-27.2 86.19-26L86.19-26Q86.19-24.85 85.99-24L85.99-24Q86.19-23.2 86.19-22L86.19-22Q86.19-20.85 85.99-20L85.99-20Q86.19-19.2 86.19-18L86.19-18Q86.19-16.85 85.99-16L85.99-16 93.99-16Q93.79-16.85 93.79-18L93.79-18Q93.79-19.2 93.99-20L93.99-20Q93.79-20.85 93.79-22L93.79-22Q93.79-23.2 93.99-24L93.99-24Q93.79-24.85 93.79-26L93.79-26Q93.79-27.2 93.99-28L93.99-28 97.99-28Q98.19-27.2 98.19-26L98.19-26Q98.19-24.85 97.99-24L97.99-24ZM111.99-4L114.99-4Q115.19-3.2 115.19-2L115.19-2Q115.19-0.85 114.99 0L114.99 0 104.99 0Q104.79-0.85 104.79-2L104.79-2Q104.79-3.2 104.99-4L104.99-4 107.99-4Q107.79-4.85 107.79-6L107.79-6Q107.79-7.2 107.99-8L107.99-8Q107.79-8.85 107.79-10L107.79-10Q107.79-11.2 107.99-12L107.99-12Q107.79-12.85 107.79-14L107.79-14Q107.79-15.2 107.99-16L107.99-16Q107.79-16.85 107.79-18L107.79-18Q107.79-19.2 107.99-20L107.99-20Q107.79-20.85 107.79-22L107.79-22Q107.79-23.2 107.99-24L107.99-24 104.99-24Q104.79-24.85 104.79-26L104.79-26Q104.79-27.2 104.99-28L104.99-28 114.99-28Q115.19-27.2 115.19-26L115.19-26Q115.19-24.85 114.99-24L114.99-24 111.99-24Q112.19-23.2 112.19-22L112.19-22Q112.19-20.85 111.99-20L111.99-20Q112.19-19.2 112.19-18L112.19-18Q112.19-16.85 111.99-16L111.99-16Q112.19-15.2 112.19-14L112.19-14Q112.19-12.85 111.99-12L111.99-12Q112.19-11.2 112.19-10L112.19-10Q112.19-8.85 111.99-8L111.99-8Q112.19-7.2 112.19-6L112.19-6Q112.19-4.85 111.99-4L111.99-4ZM115.99-36Q116.19-35.2 116.19-34L116.19-34Q116.19-32.85 115.99-32L115.99-32 103.99-32Q103.79-32.85 103.79-34L103.79-34Q103.79-35.2 103.99-36L103.99-36 115.99-36Z" opacity="1" transform="matrix(1,0,0,1,0,0)" fill="#ffffff" class="wordmark-text-0" data-fill-palette-color="primary" id="text-0"></path></svg></g></svg></g><g transform="matrix(1,0,0,1,0,95.07767970944894)"><svg viewBox="0 0 164.86895231999998 31.943654849045565" height="31.943654849045565" width="164.86895231999998"><g transform="matrix(1,0,0,1,0,0)"><svg width="164.86895231999998" viewBox="1.7 -33.05 174.43 33.8" height="31.943654849045565" data-palette-color="#000000"><path d="M21.7-13.85Q21.7-13.4 21.55-11.3L21.55-11.3 7.9-11.3Q8.1-7.2 9.33-5.58 10.55-3.95 12.8-3.95L12.8-3.95Q14.35-3.95 15.6-4.48 16.85-5 18.3-6.15L18.3-6.15 20.85-2.65Q17.35 0.75 12.45 0.75L12.45 0.75Q7.25 0.75 4.48-2.85 1.7-6.45 1.7-13L1.7-13Q1.7-19.55 4.35-23.35 7-27.15 11.85-27.15L11.85-27.15Q16.5-27.15 19.1-23.78 21.7-20.4 21.7-13.85L21.7-13.85ZM15.7-15.3L15.7-15.65Q15.7-19.4 14.8-21.13 13.9-22.85 11.9-22.85L11.9-22.85Q10.05-22.85 9.08-21.18 8.1-19.5 7.9-15.3L7.9-15.3 15.7-15.3ZM43.45-26.45L37.35-14.15 44.5 0 38 0 33.6-10.65 29.3 0 22.95 0 30.1-13.95 23.65-26.45 30.05-26.45 33.7-17.25 37.25-26.45 43.45-26.45ZM58.35-5L60.5-1.2Q58.05 0.75 54.75 0.75L54.75 0.75Q51.3 0.75 49.5-1.23 47.7-3.2 47.7-6.6L47.7-6.6 47.7-22 44.6-22 44.6-26.45 47.7-26.45 47.7-32.3 53.85-33.05 53.85-26.45 58.85-26.45 58.25-22 53.85-22 53.85-6.6Q53.85-4.2 55.9-4.2L55.9-4.2Q56.55-4.2 57.05-4.38 57.55-4.55 58.35-5L58.35-5ZM74.69-27.1Q75.84-27.1 76.74-26.75L76.74-26.75 75.74-20.85Q74.74-21.1 73.89-21.1L73.89-21.1Q71.99-21.1 70.89-19.45 69.79-17.8 69.19-14.55L69.19-14.55 69.19 0 63.04 0 63.04-26.45 68.39-26.45 68.84-21.85Q70.69-27.1 74.69-27.1L74.69-27.1ZM96.49-6.4Q96.49-5.1 96.84-4.48 97.19-3.85 97.99-3.45L97.99-3.45 96.74 0.65Q94.69 0.4 93.47-0.45 92.24-1.3 91.64-3.05L91.64-3.05Q89.34 0.75 85.19 0.75L85.19 0.75Q81.89 0.75 79.94-1.48 77.99-3.7 77.99-7.4L77.99-7.4Q77.99-11.7 80.67-13.95 83.34-16.2 88.44-16.2L88.44-16.2 90.49-16.2 90.49-18.05Q90.49-20.55 89.62-21.58 88.74-22.6 86.79-22.6L86.79-22.6Q84.44-22.6 80.94-21.3L80.94-21.3 79.54-25.3Q81.54-26.2 83.69-26.68 85.84-27.15 87.79-27.15L87.79-27.15Q96.49-27.15 96.49-18.35L96.49-18.35 96.49-6.4ZM86.84-3.7Q89.24-3.7 90.49-7L90.49-7 90.49-12.55 89.04-12.55Q86.49-12.55 85.32-11.4 84.14-10.25 84.14-7.85L84.14-7.85Q84.14-5.8 84.84-4.75 85.54-3.7 86.84-3.7L86.84-3.7ZM111.79-27.15Q113.94-27.15 115.69-26.43 117.44-25.7 119.04-24.15L119.04-24.15 116.39-20.65Q115.29-21.55 114.31-21.98 113.34-22.4 112.19-22.4L112.19-22.4Q109.94-22.4 108.79-20.28 107.64-18.15 107.64-13.1L107.64-13.1Q107.64-8.2 108.81-6.2 109.99-4.2 112.19-4.2L112.19-4.2Q113.29-4.2 114.19-4.6 115.09-5 116.29-5.85L116.29-5.85 119.04-2.3Q115.84 0.75 111.89 0.75L111.89 0.75Q106.79 0.75 103.96-2.73 101.14-6.2 101.14-13L101.14-13Q101.14-17.4 102.44-20.6 103.74-23.8 106.16-25.48 108.59-27.15 111.79-27.15L111.79-27.15ZM133.24-5L135.39-1.2Q132.94 0.75 129.64 0.75L129.64 0.75Q126.19 0.75 124.39-1.23 122.59-3.2 122.59-6.6L122.59-6.6 122.59-22 119.49-22 119.49-26.45 122.59-26.45 122.59-32.3 128.74-33.05 128.74-26.45 133.74-26.45 133.14-22 128.74-22 128.74-6.6Q128.74-4.2 130.79-4.2L130.79-4.2Q131.44-4.2 131.94-4.38 132.44-4.55 133.24-5L133.24-5ZM147.33-27.15Q152.33-27.15 155.11-23.65 157.88-20.15 157.88-13.25L157.88-13.25Q157.88-6.65 155.08-2.95 152.28 0.75 147.33 0.75L147.33 0.75Q142.38 0.75 139.58-2.88 136.78-6.5 136.78-13.25L136.78-13.25Q136.78-19.95 139.58-23.55 142.38-27.15 147.33-27.15L147.33-27.15ZM147.33-22.5Q145.18-22.5 144.18-20.38 143.18-18.25 143.18-13.25L143.18-13.25Q143.18-8.2 144.18-6.08 145.18-3.95 147.33-3.95L147.33-3.95Q149.48-3.95 150.48-6.08 151.48-8.2 151.48-13.25L151.48-13.25Q151.48-18.3 150.48-20.4 149.48-22.5 147.33-22.5L147.33-22.5ZM174.08-27.1Q175.23-27.1 176.13-26.75L176.13-26.75 175.13-20.85Q174.13-21.1 173.28-21.1L173.28-21.1Q171.38-21.1 170.28-19.45 169.18-17.8 168.58-14.55L168.58-14.55 168.58 0 162.43 0 162.43-26.45 167.78-26.45 168.23-21.85Q170.08-27.1 174.08-27.1L174.08-27.1Z" opacity="1" transform="matrix(1,0,0,1,0,0)" fill="#ffffff" class="slogan-text-1" data-fill-palette-color="secondary" id="text-1"></path></svg></g></svg></g></svg></g></svg></g></svg></g></svg></g><path d="M248.194 54.089L248.194 0 0.994 0 0.994 247.2 248.194 247.2 248.194 193.111 241.257 193.111 241.257 240.263 7.93 240.263 7.93 6.937 241.257 6.937 241.257 54.089Z" fill="#ffffff" stroke="transparent" data-fill-palette-color="tertiary"></path></svg></g><defs></defs></svg><rect width="395.52" height="247.2" fill="none" stroke="none" visibility="hidden"></rect></g></svg></g></svg>