<svg xmlns="http://www.w3.org/2000/svg" version="1.1" xmlns:xlink="http://www.w3.org/1999/xlink" xmlns:svgjs="http://svgjs.dev/svgjs" width="2000" height="2194" viewBox="0 0 2000 2194"><g transform="matrix(1,0,0,1,-2.609230350777011,-3.5387096774193196)"><svg viewBox="0 0 226 248" data-background-color="#000000" preserveAspectRatio="xMidYMid meet" height="2194" width="2000" xmlns="http://www.w3.org/2000/svg" xmlns:xlink="http://www.w3.org/1999/xlink"><g id="tight-bounds" transform="matrix(1,0,0,1,0.2948430296378035,0.4000000000000057)"><svg viewBox="0 0 225.4103139407244 247.2" height="247.2" width="225.4103139407244"><g><svg></svg></g><g><svg viewBox="0 0 225.4103139407244 247.2" height="247.2" width="225.4103139407244"><g transform="matrix(1,0,0,1,0,47.215199999999996)"><svg viewBox="0 0 225.4103139407244 152.7696" height="152.7696" width="225.4103139407244"><g><svg viewBox="0 0 244.43135999999998 165.66092492322977" height="152.7696" width="225.4103139407244"><g transform="matrix(1,0,0,1,0,79.88728646095214)"><svg viewBox="0 0 244.43135999999998 85.77363846227763" height="85.77363846227763" width="244.43135999999998"><g id="textblocktransform"><svg viewBox="0 0 244.43135999999998 85.77363846227763" height="85.77363846227763" width="244.43135999999998" id="textblock"><g><svg viewBox="0 0 244.43135999999998 62.22887487832271" height="62.22887487832271" width="244.43135999999998"><g transform="matrix(1,0,0,1,0,0)"><svg width="244.43135999999998" viewBox="4.65 -33.7 133.54 34" height="62.22887487832271" data-palette-color="#fff6db"><path d="M16.25-32.25Q23.1-32.25 26.75-28.35 30.4-24.45 30.4-17.15L30.4-17.15Q30.4-8.7 26.45-4.2 22.5 0.3 15.1 0.3L15.1 0.3Q13.05 0.3 10.13 0.23 7.2 0.15 4.7 0L4.7 0 4.65 0 4.9-9.65 4.65-32.05 4.7-32.05 16.25-32.25ZM15.75-3.05Q20.85-3.05 23.58-6.38 26.3-9.7 26.3-16.3L26.3-16.3Q26.3-28.9 15.95-28.9L15.95-28.9Q12.8-28.9 8.7-28.7L8.7-28.7 8.5-10 8.65-3.35Q10.2-3.2 12.38-3.13 14.55-3.05 15.75-3.05L15.75-3.05ZM45.35-3L52-3.2 52.3-2.9 51.95 0 36.8 0 36.95-7.5 36.8-24.9 52.05-24.9 52.3-24.6 52-21.7 45.7-21.9 40.5-21.85 40.45-14.3 45.4-14.25 49.75-14.4 50-14.05 49.7-11.1 45.1-11.25 40.45-11.2 40.4-7.8 40.45-3.05 45.35-3ZM71.75-3.15L71.95-2.8 71.7 0 58.45 0 58.6-7.5 58.45-24.9 62.2-24.9 62.05-7.8 62.15-3.15 71.75-3.15ZM85.89-24.95Q89.84-24.95 91.97-23.05 94.09-21.15 94.09-17.55L94.09-17.55Q94.09-13.35 91.42-10.98 88.74-8.6 84.04-8.6L84.04-8.6 80.99-8.6 80.99-7.8 81.09 0 77.39 0 77.54-7.5 77.39-24.9 85.89-24.95ZM85.24-11.5Q90.19-12.35 90.19-17.25L90.19-17.25Q90.19-19.6 88.87-20.75 87.54-21.9 84.89-22L84.89-22 81.09-21.95 81.04-11.6 85.24-11.5ZM121.54-24.9L121.39-7.8 121.49 0 117.79 0 117.94-7.5 117.89-10.9 104.34-10.85 104.29-7.8 104.39 0 100.69 0 100.84-7.5 100.69-24.9 104.44-24.9 104.34-14.2 111.09-14.15 117.89-14.2 117.79-24.9 121.54-24.9ZM137.94-33.7L138.19-33.45 137.99-31.1 127.14-31.1 126.89-31.4 127.09-33.7 137.94-33.7ZM134.24-24.9L134.09-7.8 134.19 0 130.49 0 130.64-7.5 130.49-24.9 134.24-24.9Z" opacity="1" transform="matrix(1,0,0,1,0,0)" fill="#000000" class="wordmark-text-0" data-fill-palette-color="primary" id="text-0"></path></svg></g></svg></g><g transform="matrix(1,0,0,1,46.68638976,76.91961874409762)"><svg viewBox="0 0 151.05858048 8.85401971818001" height="8.85401971818001" width="151.05858048"><g transform="matrix(1,0,0,1,0,0)"><svg width="151.05858048" viewBox="1.49 -36.01 614.3199999999999 36.01" height="8.85401971818001" data-palette-color="#fff6db"><path d="M20.51 0L14.99 0 1.49-35.01 6.86-35.01 17.75-6.2 28.66-35.01 34.01-35.01 20.51 0ZM39.74-26L44.55-26 44.55 0 39.74 0 39.74-26ZM39.5-31.01L39.5-36.01 44.8-36.01 44.8-31.01 39.5-31.01ZM52.8-4.81L52.8-21.19Q52.8-22.19 53.18-23.07 53.56-23.95 54.21-24.6 54.85-25.24 55.73-25.62 56.61-26 57.59-26L57.59-26 70.99-26 70.99-36.01 75.8-36.01 75.8 0 70.99 0 70.99-4.39Q70.92-3.49 70.5-2.69 70.09-1.88 69.44-1.28 68.79-0.68 67.96-0.34 67.13 0 66.21 0L66.21 0 57.59 0Q56.61 0 55.73-0.38 54.85-0.76 54.21-1.4 53.56-2.05 53.18-2.93 52.8-3.81 52.8-4.81L52.8-4.81ZM57.59-21.19L57.59-4.81 70.99-4.81 70.99-21.19 57.59-21.19ZM105.8-21.19L105.8-10.55 88.59-10.55 88.59-4.81 105.8-4.81 105.8 0 88.59 0Q87.61 0 86.74-0.38 85.86-0.76 85.21-1.4 84.56-2.05 84.18-2.93 83.81-3.81 83.81-4.81L83.81-4.81 83.81-21.19Q83.81-22.19 84.18-23.07 84.56-23.95 85.21-24.6 85.86-25.24 86.74-25.62 87.61-26 88.59-26L88.59-26 100.99-26Q101.99-26 102.87-25.62 103.75-25.24 104.4-24.6 105.05-23.95 105.42-23.07 105.8-22.19 105.8-21.19L105.8-21.19ZM100.99-21.19L88.59-21.19 88.59-15.36 100.99-15.36 100.99-21.19ZM136.29-21.19L136.29-4.81Q136.29-3.81 135.92-2.93 135.54-2.05 134.89-1.4 134.24-0.76 133.38-0.38 132.51 0 131.51 0L131.51 0 118.59 0Q117.62 0 116.74-0.38 115.86-0.76 115.21-1.4 114.57-2.05 114.19-2.93 113.81-3.81 113.81-4.81L113.81-4.81 113.81-21.19Q113.81-22.19 114.19-23.07 114.57-23.95 115.21-24.6 115.86-25.24 116.74-25.62 117.62-26 118.59-26L118.59-26 131.51-26Q132.51-26 133.38-25.62 134.24-25.24 134.89-24.6 135.54-23.95 135.92-23.07 136.29-22.19 136.29-21.19L136.29-21.19ZM131.51-21.19L118.59-21.19 118.59-4.81 131.51-4.81 131.51-21.19ZM144.3-11.69L144.3-16.5 155.99-16.5 155.99-11.69 144.3-11.69ZM162.49-21.19L162.49-26 168.83-26 168.83-34.01 173.64-34.01 173.64-26 182.19-26 182.19-21.19 173.64-21.19 173.64-4.81 182.19-4.81 182.19 0 173.64 0Q172.67 0 171.79-0.38 170.91-0.76 170.25-1.4 169.59-2.05 169.21-2.93 168.83-3.81 168.83-4.81L168.83-4.81 168.83-21.19 162.49-21.19ZM212.68-21.19L212.68-4.81Q212.68-3.81 212.3-2.93 211.92-2.05 211.27-1.4 210.63-0.76 209.76-0.38 208.89 0 207.89 0L207.89 0 194.98 0Q194 0 193.12-0.38 192.24-0.76 191.6-1.4 190.95-2.05 190.57-2.93 190.19-3.81 190.19-4.81L190.19-4.81 190.19-21.19Q190.19-22.19 190.57-23.07 190.95-23.95 191.6-24.6 192.24-25.24 193.12-25.62 194-26 194.98-26L194.98-26 207.89-26Q208.89-26 209.76-25.62 210.63-25.24 211.27-24.6 211.92-23.95 212.3-23.07 212.68-22.19 212.68-21.19L212.68-21.19ZM207.89-21.19L194.98-21.19 194.98-4.81 207.89-4.81 207.89-21.19ZM220.68-11.69L220.68-16.5 232.38-16.5 232.38-11.69 220.68-11.69ZM238.87-21.19L238.87-26 245.22-26 245.22-34.01 250.03-34.01 250.03-26 258.57-26 258.57-21.19 250.03-21.19 250.03-4.81 258.57-4.81 258.57 0 250.03 0Q249.05 0 248.17-0.38 247.29-0.76 246.63-1.4 245.97-2.05 245.6-2.93 245.22-3.81 245.22-4.81L245.22-4.81 245.22-21.19 238.87-21.19ZM288.57-21.19L288.57-10.55 271.36-10.55 271.36-4.81 288.57-4.81 288.57 0 271.36 0Q270.39 0 269.51-0.38 268.63-0.76 267.98-1.4 267.33-2.05 266.95-2.93 266.58-3.81 266.58-4.81L266.58-4.81 266.58-21.19Q266.58-22.19 266.95-23.07 267.33-23.95 267.98-24.6 268.63-25.24 269.51-25.62 270.39-26 271.36-26L271.36-26 283.76-26Q284.77-26 285.64-25.62 286.52-25.24 287.17-24.6 287.82-23.95 288.2-23.07 288.57-22.19 288.57-21.19L288.57-21.19ZM283.76-21.19L271.36-21.19 271.36-15.36 283.76-15.36 283.76-21.19ZM313.42-26L319.24-26 309.79-13.31 319.67 0 313.86 0 306.88-9.4 299.87 0 294.06 0 303.98-13.31 294.53-26 300.31-26 306.88-17.21 313.42-26ZM323.65-21.19L323.65-26 330-26 330-34.01 334.81-34.01 334.81-26 343.35-26 343.35-21.19 334.81-21.19 334.81-4.81 343.35-4.81 343.35 0 334.81 0Q333.83 0 332.95-0.38 332.07-0.76 331.42-1.4 330.76-2.05 330.38-2.93 330-3.81 330-4.81L330-4.81 330-21.19 323.65-21.19ZM366.84 0L366.84-35.01 392.35-35.01 392.35-30 371.84-30 371.84-20 389.34-20 389.34-14.99 371.84-14.99 371.84-5 392.35-5 392.35 0 366.84 0ZM416.2-26L422.01-26 412.56-13.31 422.45 0 416.64 0 409.65-9.4 402.65 0 396.84 0 406.75-13.31 397.3-26 403.09-26 409.65-17.21 416.2-26ZM426.42-21.19L426.42-26 432.77-26 432.77-34.01 437.58-34.01 437.58-26 446.13-26 446.13-21.19 437.58-21.19 437.58-4.81 446.13-4.81 446.13 0 437.58 0Q436.61 0 435.73-0.38 434.85-0.76 434.19-1.4 433.53-2.05 433.15-2.93 432.77-3.81 432.77-4.81L432.77-4.81 432.77-21.19 426.42-21.19ZM468.83-21.19L458.92-21.19 458.92 0 454.13 0 454.13-26 458.92-26 458.92-21.41Q458.97-22.36 459.36-23.21 459.75-24.05 460.39-24.67 461.04-25.29 461.9-25.65 462.75-26 463.73-26L463.73-26 468.83-26Q469.83-26 470.7-25.62 471.56-25.24 472.22-24.6 472.88-23.95 473.26-23.07 473.64-22.19 473.64-21.19L473.64-21.19 473.64-16.8 468.83-16.8 468.83-21.19ZM479.62-4.81L479.62-11.35Q479.62-12.35 480-13.22 480.37-14.09 481.02-14.75 481.67-15.41 482.55-15.78 483.43-16.16 484.4-16.16L484.4-16.16 496.81-16.16 496.81-21.19 481.11-21.19 481.11-26 496.81-26Q497.81-26 498.69-25.62 499.56-25.24 500.21-24.6 500.86-23.95 501.24-23.07 501.62-22.19 501.62-21.19L501.62-21.19 501.62 0 496.81 0 496.81-4.39Q496.73-3.49 496.32-2.69 495.9-1.88 495.26-1.28 494.61-0.68 493.78-0.34 492.95 0 492.02 0L492.02 0 484.4 0Q483.43 0 482.55-0.38 481.67-0.76 481.02-1.4 480.37-2.05 480-2.93 479.62-3.81 479.62-4.81L479.62-4.81ZM484.4-11.35L484.4-4.81 496.81-4.81 496.81-11.35 484.4-11.35ZM526.81-21.19L514.41-21.19 514.41-4.81 526.81-4.81 526.81-9.2 531.62-9.2 531.62-4.81Q531.62-3.81 531.24-2.93 530.86-2.05 530.21-1.4 529.57-0.76 528.69-0.38 527.81 0 526.81 0L526.81 0 514.41 0Q513.43 0 512.55-0.38 511.67-0.76 511.02-1.4 510.38-2.05 510-2.93 509.62-3.81 509.62-4.81L509.62-4.81 509.62-21.19Q509.62-22.19 510-23.07 510.38-23.95 511.02-24.6 511.67-25.24 512.55-25.62 513.43-26 514.41-26L514.41-26 526.81-26Q527.81-26 528.69-25.62 529.57-25.24 530.21-24.6 530.86-23.95 531.24-23.07 531.62-22.19 531.62-21.19L531.62-21.19 531.62-16.8 526.81-16.8 526.81-21.19ZM538.11-21.19L538.11-26 544.46-26 544.46-34.01 549.27-34.01 549.27-26 557.81-26 557.81-21.19 549.27-21.19 549.27-4.81 557.81-4.81 557.81 0 549.27 0Q548.29 0 547.41-0.38 546.53-0.76 545.87-1.4 545.21-2.05 544.84-2.93 544.46-3.81 544.46-4.81L544.46-4.81 544.46-21.19 538.11-21.19ZM588.3-21.19L588.3-4.81Q588.3-3.81 587.92-2.93 587.55-2.05 586.9-1.4 586.25-0.76 585.38-0.38 584.52 0 583.52 0L583.52 0 570.6 0Q569.63 0 568.75-0.38 567.87-0.76 567.22-1.4 566.57-2.05 566.2-2.93 565.82-3.81 565.82-4.81L565.82-4.81 565.82-21.19Q565.82-22.19 566.2-23.07 566.57-23.95 567.22-24.6 567.87-25.24 568.75-25.62 569.63-26 570.6-26L570.6-26 583.52-26Q584.52-26 585.38-25.62 586.25-25.24 586.9-24.6 587.55-23.95 587.92-23.07 588.3-22.19 588.3-21.19L588.3-21.19ZM583.52-21.19L570.6-21.19 570.6-4.81 583.52-4.81 583.52-21.19ZM611-21.19L601.09-21.19 601.09 0 596.31 0 596.31-26 601.09-26 601.09-21.41Q601.14-22.36 601.53-23.21 601.92-24.05 602.57-24.67 603.22-25.29 604.07-25.65 604.93-26 605.9-26L605.9-26 611-26Q612.01-26 612.87-25.62 613.74-25.24 614.4-24.6 615.06-23.95 615.44-23.07 615.81-22.19 615.81-21.19L615.81-21.19 615.81-16.8 611-16.8 611-21.19Z" opacity="1" transform="matrix(1,0,0,1,0,0)" fill="#000000" class="slogan-text-1" data-fill-palette-color="secondary" id="text-1"></path></svg></g></svg></g></svg></g></svg></g><g transform="matrix(1,0,0,1,93.75654623503598,0)"><svg viewBox="0 0 56.918267529928 65.19654259517723" height="65.19654259517723" width="56.918267529928"><g><svg xmlns:dc="http://purl.org/dc/elements/1.1/" xmlns:cc="http://creativecommons.org/ns#" xmlns:rdf="http://www.w3.org/1999/02/22-rdf-syntax-ns#" xmlns:svg="http://www.w3.org/2000/svg" xmlns="http://www.w3.org/2000/svg" xmlns:sodipodi="http://sodipodi.sourceforge.net/DTD/sodipodi-0.dtd" xmlns:inkscape="http://www.inkscape.org/namespaces/inkscape" preserveAspectRatio="xMidYMid" viewBox="0 0 55.00062904640467 63" version="1.1" x="0" y="0" id="icon-0" width="56.918267529928" height="65.19654259517723" class="icon-icon-0" data-fill-palette-color="accent"><path d="M10.094 0C4.92 0 0 3.381 0 9.031V55.125C0 59.253 3.491 63 7.781 63H47.813C47.942 62.993 48.059 62.983 48.187 62.969 51.454 62.789 54.19 60.309 54.845 56.75 54.846 56.74 54.842 56.73 54.844 56.719A8 8 0 0 0 54.969 55.969V55.937A8 8 0 0 0 55 55.126V18.813C55 14.292 51.734 11 47.813 11H30.593C29.624 11 29 10.4 29 9.969V9.03C29 3.632 24.888 0 19.406 0zM10.094 3H19.406C23.266 3 26 5.258 26 9.031V9.97C26 12.387 28.176 14 30.594 14H47.813C50.4 14 52 16.5 52 18.813V23C50.78 22.348 49.244 22 47.469 22H23.28C18.948 22 15 23.903 15 28.125V53.406C15 56.446 13.305 60 9.688 60H7.782C5.206 60 3 57.546 3 55.125V9.031C3 5.26 6.394 3 10.094 3M23.28 25H47.47C51.094 25 52 26.586 52 28.125V55.125C52 57.528 50.044 60 47.469 60H15.688C16.9 58.345 18 56.077 18 53.406V28.125C18 25.668 21.162 25 23.281 25M35.625 32.156C31.808 32.156 26.137 35.81 23.094 38 22.469 38.451 22.094 39.199 22.094 39.969S22.467 41.454 23.094 41.906C26.134 44.096 31.808 47.75 35.625 47.75 39.444 47.75 45.117 44.095 48.156 41.906A2.38 2.38 0 0 0 49.156 39.97 2.44 2.44 0 0 0 48.156 38C45.117 35.811 39.444 32.156 35.625 32.156M30.813 36.75A5.83 5.83 0 0 0 29.843 39.969 5.73 5.73 0 0 0 30.814 43.156 44 44 0 0 1 25.53 39.97C27.421 38.649 29.216 37.559 30.813 36.75M40.438 36.75C42.034 37.56 43.828 38.648 45.718 39.969A44 44 0 0 1 40.439 43.156 5.73 5.73 0 0 0 41.406 39.97 5.83 5.83 0 0 0 40.438 36.75M36.344 37.281A2.79 2.79 0 0 1 38.406 39.97 2.785 2.785 0 0 1 35.625 42.75 2.785 2.785 0 0 1 32.844 39.969C32.844 39.926 32.873 39.887 32.875 39.844 33.27 40.239 33.835 40.5 34.438 40.5 35.64 40.5 36.594 39.517 36.594 38.313 36.594 37.936 36.51 37.59 36.344 37.28" fill="#000000" fill-rule="evenodd" data-fill-palette-color="accent"></path></svg></g></svg></g><g></g></svg></g></svg></g><path d="M0 41.215L0 1 225.41 1 225.41 41.215 220.235 41.215 220.235 6.175 5.175 6.175 5.175 41.215 0 41.215M0 205.985L0 246.2 225.41 246.2 225.41 205.985 220.235 205.985 220.235 241.025 5.175 241.025 5.175 205.985 0 205.985" fill="#000000" stroke="transparent" data-fill-palette-color="tertiary"></path></svg></g><defs></defs></svg><rect width="225.4103139407244" height="247.2" fill="none" stroke="none" visibility="hidden"></rect></g></svg></g></svg>